<?xml version="1.0" standalone="no"?>
<!DOCTYPE svg PUBLIC "-//W3C//DTD SVG 20010904//EN"
 "http://www.w3.org/TR/2001/REC-SVG-20010904/DTD/svg10.dtd">
<svg version="1.0" xmlns="http://www.w3.org/2000/svg"
 width="2048.000000pt" height="2048.000000pt" viewBox="0 0 2048.000000 2048.000000"
 preserveAspectRatio="xMidYMid meet">
<metadata>
Created by potrace 1.14, written by Peter Selinger 2001-2017
</metadata>
<g transform="translate(0.000000,2048.000000) scale(0.100000,-0.100000)"
fill="#000000" stroke="none">
<path d="M6558 15315 c-35 -20 -66 -87 -85 -187 -21 -111 -22 -558 -4 -1498
15 -765 8 -1378 -24 -2115 -8 -192 -20 -462 -25 -600 -6 -137 -14 -1042 -20
-2010 -5 -968 -14 -2086 -20 -2485 -11 -701 -9 -873 11 -1009 18 -120 60 -209
112 -238 31 -17 88 -16 115 3 57 40 97 187 111 414 39 589 63 6556 31 7580
-12 381 -36 914 -50 1085 -5 66 -16 266 -25 445 -28 591 -30 611 -46 621 -20
13 -50 10 -81 -6z"/>
<path d="M9095 14866 c-79 -35 -147 -124 -235 -310 -108 -229 -200 -470 -272
-716 l-13 -44 -150 -28 c-311 -56 -537 -128 -780 -248 -260 -127 -478 -280
-655 -460 -157 -158 -199 -269 -147 -383 32 -71 85 -109 161 -115 103 -8 193
59 204 153 4 41 12 52 91 128 258 248 636 441 1041 531 213 47 318 60 382 47
50 -10 64 -9 117 9 101 34 333 23 579 -26 696 -139 1377 -687 1732 -1394 197
-392 305 -786 400 -1460 22 -157 49 -320 60 -363 42 -170 140 -356 213 -405
37 -24 96 -38 122 -28 14 5 14 9 -1 38 -14 27 -15 46 -8 128 5 52 9 187 8 300
-1 181 -5 235 -38 460 -93 640 -221 1092 -422 1492 -31 62 -41 90 -32 92 7 3
25 7 40 10 14 3 50 25 80 49 97 78 265 170 522 287 216 97 252 117 299 169 86
95 43 200 -95 231 -136 30 -419 -70 -768 -270 -138 -80 -205 -130 -229 -172
-21 -36 -31 -35 -57 5 -89 138 -364 437 -534 581 -386 328 -811 538 -1255 621
-139 25 -321 45 -422 45 -35 0 -63 4 -63 9 0 22 77 225 164 433 123 295 146
360 153 434 13 135 -81 218 -192 170z"/>
<path d="M8757 12699 c-50 -12 -111 -43 -170 -87 -51 -39 -97 -116 -97 -164 0
-67 56 -149 115 -168 18 -6 46 -28 64 -50 67 -83 168 -99 254 -40 103 70 158
265 108 376 -27 59 -86 112 -144 129 -56 17 -74 17 -130 4z"/>
<path d="M6922 12354 c-83 -58 -68 -219 39 -425 108 -208 542 -805 875 -1204
332 -397 583 -645 964 -949 303 -243 485 -348 924 -536 171 -73 196 -78 204
-38 3 17 -221 270 -349 393 -134 128 -218 201 -434 376 -577 467 -818 714
-1302 1337 -83 106 -235 289 -338 407 -242 277 -332 389 -397 499 -88 147
-130 179 -186 140z"/>
<path d="M10245 11416 c-201 -82 -255 -135 -255 -251 0 -179 173 -285 332
-204 107 54 188 170 188 266 0 142 -139 241 -265 189z"/>
<path d="M13361 10450 c-184 -37 -379 -118 -470 -196 -35 -31 -42 -42 -39 -68
3 -30 4 -31 51 -30 38 0 53 6 72 26 47 50 307 138 513 172 205 34 311 29 404
-19 27 -14 55 -24 61 -22 18 6 -80 96 -126 116 -106 46 -299 54 -466 21z"/>
<path d="M13575 10098 c-252 -28 -485 -128 -485 -208 0 -52 19 -55 125 -15
118 44 289 80 490 102 146 16 159 16 285 -1 72 -10 134 -15 138 -12 11 12 -63
77 -115 101 -89 42 -249 55 -438 33z"/>
<path d="M14127 9889 c-215 -23 -448 -76 -882 -200 -490 -140 -742 -231 -1020
-367 -383 -188 -1094 -609 -1240 -735 -146 -125 -121 -336 40 -355 76 -8 108
5 217 87 174 129 793 493 1113 654 165 82 417 185 592 241 168 54 609 180 768
220 152 39 409 86 464 86 34 0 34 0 15 -21 -30 -33 -277 -234 -404 -328 -155
-115 -529 -366 -720 -483 -234 -143 -395 -235 -725 -410 -165 -88 -376 -201
-470 -251 -250 -133 -435 -246 -767 -470 -295 -198 -328 -226 -283 -243 28
-11 251 35 465 96 373 107 592 201 1135 490 354 187 499 268 735 410 736 441
1357 924 1461 1135 30 60 34 79 34 145 0 87 -16 128 -73 185 -92 92 -264 135
-455 114z"/>
<path d="M10850 8929 c-199 -107 -453 -281 -645 -440 -280 -233 -1094 -1116
-1389 -1506 -99 -131 -233 -368 -256 -451 -14 -55 0 -102 41 -137 42 -34 92
-33 150 4 50 32 299 297 475 506 287 340 479 554 844 940 370 391 478 517 696
810 208 281 235 325 191 325 -7 0 -55 -23 -107 -51z"/>
<path d="M14619 8867 c-415 -347 -667 -525 -906 -644 -109 -54 -133 -70 -133
-87 0 -34 20 -46 72 -46 143 0 427 159 713 398 165 138 295 275 328 344 29 59
37 100 22 104 -5 2 -49 -29 -96 -69z"/>
<path d="M14785 8444 c-111 -77 -180 -135 -405 -334 -326 -290 -500 -419 -570
-424 -70 -5 -105 -62 -64 -103 22 -22 32 -25 71 -20 105 11 298 134 520 329
157 138 414 406 481 501 90 127 86 133 -33 51z"/>
</g>
</svg>
